<svg xmlns="http://www.w3.org/2000/svg" width="180" height="48" viewBox="0 0 180 48" fill="none">
  <rect width="180" height="48" rx="10" fill="#00C3A5"/>
  <path d="M33.2 17.4H28.5V31H24.7V17.4H20V14.2H33.2V17.4Z" fill="white"/>
  <path d="M40.8 31.4C37 31.4 34.3 28.8 34.3 24.7C34.3 20.6 37.1 18 40.8 18C44.5 18 47.3 20.6 47.3 24.7C47.3 28.8 44.6 31.4 40.8 31.4ZM40.8 28.3C42.5 28.3 43.6 26.9 43.6 24.7C43.6 22.5 42.5 21.1 40.8 21.1C39.1 21.1 38 22.5 38 24.7C38 26.9 39.1 28.3 40.8 28.3Z" fill="white"/>
  <path d="M53.6 18.4V19.9C54.5 18.8 55.9 18.1 57.6 18.1C60.7 18.1 62.7 20.2 62.7 23.6V31H59.1V24.4C59.1 22.5 58.2 21.5 56.7 21.5C55.2 21.5 54.2 22.6 54.2 24.4V31H50.6V18.4H53.6Z" fill="white"/>
  <path d="M72 18.1C75.3 18.1 77.6 20.3 77.6 24V31H74.4V29.6C73.6 30.8 72.3 31.4 70.6 31.4C68 31.4 66.2 29.9 66.2 27.6C66.2 25.2 68 23.9 71.1 23.9H74.3V23.7C74.3 22.1 73.4 21.2 71.8 21.2C70.3 21.2 69.4 21.9 69.2 23H66.1C66.4 20.1 68.6 18.1 72 18.1ZM71.5 29C73.2 29 74.3 27.9 74.3 26.2V26H71.5C70.1 26 69.4 26.5 69.4 27.4C69.4 28.4 70.2 29 71.5 29Z" fill="white"/>
  <path d="M84 14.2V31H80.4V14.2H84Z" fill="white"/>
  <text x="96" y="31" fill="white" font-family="Arial, Helvetica, sans-serif" font-size="16" font-weight="700">tamara</text>
</svg>
